<svg id="Layer_1" data-name="Layer 1" xmlns="http://www.w3.org/2000/svg" viewBox="0 0 265.81 181.99"><defs><style>.cls-1{fill:none;stroke:#231f20;stroke-miterlimit:10;stroke-width:0.5px;}.cls-2{fill:#231f20;}</style></defs><path class="cls-1" d="M75.48,111.79q1.86,6.93,3.6,16.48a97.11,97.11,0,0,1,1.74,17.53,33.09,33.09,0,0,1-.5,5.87A12.47,12.47,0,0,1,78,156.88a10.16,10.16,0,0,1-5.34,3.6,10.27,10.27,0,0,1-1.52.39q-1,.21-3.24.84c-1.46.42-2.41.48-2.85.16s-.77-1.23-1-2.74V82.92c2-.06,4.57,5.37,7.84,16.08Q73.61,104.78,75.48,111.79Zm2,18.42q-.83-6.54-1.73-10.91T74,111.88c-.57-2-.91-3.22-1-3.59A89.89,89.89,0,0,0,69.17,96C67.89,92.93,66.83,91.23,66,91v50c0,1.36,0,3.06,0,5.11s0,3.43,0,4.12c0,3.64.22,6,.68,7.19s1.47,1.49,3,1a13.16,13.16,0,0,0,6.4-4.4c1.78-2.14,2.66-5.3,2.66-9.51Q78.35,136.71,77.51,130.21Z"/><path class="cls-1" d="M97.18,82.3c0,.73-.08,1.15-.25,1.26q-5.69.64-9,.77a14.38,14.38,0,0,1-1.68,0,2.13,2.13,0,0,0-1.67.72,4.07,4.07,0,0,0-.87,1.89v2.29c2.79-.14,5.33-.33,7.62-.55s3.62-.33,4-.35a2.67,2.67,0,0,1,1.92.45c0,1.31-.93,2-2.8,2.15-1.5.09-3.51,0-5,0a8.68,8.68,0,0,0-3.47.76,4,4,0,0,0-1.71,2.58,23.94,23.94,0,0,0-.56,6.11c0,1.07.24,4.36.72,9.84s1.2,11.13,2.14,17a54.86,54.86,0,0,0,3.52,13.29,30.47,30.47,0,0,0,3,5.26,13.39,13.39,0,0,0,2.44,2.63c.72.55,1.36,1.05,1.94,1.52a3,3,0,0,1,1.09,1.72l-1.37.43c-3.16-.15-5.74-2.48-7.74-7a64.56,64.56,0,0,1-4.29-14.72c-.86-5.19-1.43-9.58-1.7-13.13q-.27-4-.81-16.44c-.37-8.3-.55-12.6-.55-12.86V82.44a4.93,4.93,0,0,1,2.46-.65q1.71-.11,6.27-.29a41,41,0,0,0,5.72-.44C97,81.12,97.18,81.54,97.18,82.3Z"/><path class="cls-1" d="M102.21,142q0-5.67,0-13,0-45.6-.73-47.53l2.55.3v53.29c0,.54,0,1.3,0,2.29s0,1.71,0,2.18a19.16,19.16,0,0,0,.48,5c.31,1.06,1,1.44,1.92,1.15L112,144a16.32,16.32,0,0,0,2-1,8.64,8.64,0,0,0,2.05-1.37l1.17-.35a12.32,12.32,0,0,1,.16,2.11,17.89,17.89,0,0,1-.16,1.86l-15,4.71Q102.18,147.64,102.21,142Z"/><path class="cls-1" d="M120.91,77.81c-.16-.06-.26-.24-.33-.55a10.41,10.41,0,0,1-.09-1.7h1.33c0,.25.06.6.13,1a6.11,6.11,0,0,1,.11.88c0,.27-.08.41-.24.41A2.49,2.49,0,0,1,120.91,77.81Zm0,3.59,1.38,0q0,6.28.14,18.8t.25,26.8q.15,14.28.29,16.82l-2.06.65Z"/><path class="cls-1" d="M141.13,80q3.56-.08,3.63.57a4.54,4.54,0,0,1-.47,2.18,13.17,13.17,0,0,1-1.42,2,11.32,11.32,0,0,0-1.45,2.12,5.49,5.49,0,0,0-.49,2.49l3.68,44.73a14.11,14.11,0,0,0,.15,1.46c.09.73.14,1.13.14,1.2l-1.47.47c-.11,0-.2-.25-.27-.85s-.15-1.74-.25-3.41-.2-3.24-.31-4.69c0-.69-.09-1.66-.16-2.91s-.19-2.9-.34-4.94-.39-4.89-.72-8.57-.73-7.71-1.18-12.09a63,63,0,0,0-1.09-7.82c-.31-1.12-.67-1.66-1.06-1.63-.63.45-1.63,1.22-3,2.33a46.26,46.26,0,0,0-4.22,4v44.6l-2,.62q0-4.26.18-9.13t.26-9.56c.1-3.13.15-4.89.15-5.27q.09-10.78.09-10.54c0-1,0-2.77,0-5.18s-.05-5.31-.05-8.68l-.59-9.72v-3Q138.57,80,141.13,80Zm-9,2.6a1.8,1.8,0,0,0-1.1,1.88v8.2a24.23,24.23,0,0,0,5-3.3,35.16,35.16,0,0,0,4.22-4,7.6,7.6,0,0,0,1.85-2.73c0-.64-.62-.93-1.86-.89-.35,0-1.08.07-2.22.17s-2.07.18-2.83.2A9.48,9.48,0,0,0,132.09,82.58Z"/><path class="cls-1" d="M150.16,77.51c-.16-.05-.27-.21-.33-.47a8,8,0,0,1-.09-1.48h1.33c0,.21.06.52.13.91a6,6,0,0,1,.11.76q0,.36-.24.36A3.11,3.11,0,0,1,150.16,77.51Zm0,3.11,1.37,0q0,5.43.15,16.27t.25,23.19q.15,12.35.28,14.54l-2.05.65Z"/><path class="cls-1" d="M158.42,108.89q1.68-9.15,4-17.83c1.51-5.69,2.86-9.51,4-11.52l1.41,0q-1.74,4.62-3.34,10.22t-2.81,11.47q-1.21,5.85-1.89,11.11a74.21,74.21,0,0,0-.68,9.19q0,9,8.82,6.35c1.38-.42,4-.65,5-1.91a2.82,2.82,0,0,0,.51-1.87q0-2.14.06-7.19t0-11.07q0-6.94-.06-12.29c-.05-3.56-.13-6.67-.24-9.31a21.64,21.64,0,0,0-.48-4.75l3-.07a.52.52,0,0,0-.07.15c0,.09-.07.22-.14.4q-.18,5-.19,17.19,0,8.81.07,17.46t.12,12.64l-10.08,3.17a5.9,5.9,0,0,1-6.14-1.23c-1.73-1.62-2.6-4.31-2.6-8A88,88,0,0,1,158.42,108.89Z"/><path class="cls-1" d="M187.12,82.09a9.7,9.7,0,0,1,.49-2.19c.21-.57.49-.86.85-.86s.57.24.8.73.56,1.4,1,2.7a31.29,31.29,0,0,0,1.41,3.44,11.26,11.26,0,0,0,1.84,2.66,11.36,11.36,0,0,0,1.61-2.6c.42-.92.91-2.14,1.49-3.65a21,21,0,0,1,1.47-3.25l1.14,0c.53,2.73,1.37,7,2.51,12.64s2.3,10.93,3.44,16,1.86,7.72,2.15,8.17l.29,1.37-2.19.69c-.45-2.34-1.15-6-2.12-10.9s-2-10.09-3-15.22-1.71-8-2-8.45c-3.28,3-2.74,7.58-4.91,10.91A30.18,30.18,0,0,1,192.08,91q-.92-2.61-1.72-4.39a8.22,8.22,0,0,0-1.8-2.7c-.15.08-.7,3.08-1.67,9s-1.9,12.11-2.8,18.17-1.56,10.77-2,13.88c-1,.38-1.39.55-1.29.52a2.66,2.66,0,0,1-1-.11c.5-2.94,1.24-7.37,2.24-13.23s2-11.72,3.07-17.79,1.64-9.36,1.74-10.16C186.91,83.7,187,83,187.12,82.09Z"/><path class="cls-2" d="M81.84,75.6q1.86,6.93,3.6,16.48a97.13,97.13,0,0,1,1.74,17.54,33,33,0,0,1-.5,5.86,12.47,12.47,0,0,1-2.29,5.21,10.18,10.18,0,0,1-5.34,3.61,11.34,11.34,0,0,1-1.52.38c-.7.14-1.78.42-3.24.85s-2.41.47-2.85.15-.77-1.23-1-2.73V46.73c2,0,4.57,5.37,7.84,16.08Q80,68.6,81.84,75.6Zm2,18.42Q83,87.5,82.14,83.11c-.6-2.93-1.19-5.41-1.77-7.41s-.91-3.22-1-3.59a89.63,89.63,0,0,0-3.81-12.26c-1.28-3.11-2.34-4.8-3.2-5.07v50.05c0,1.35,0,3,0,5.11s0,3.42,0,4.11q0,5.46.68,7.2c.46,1.15,1.47,1.48,3,1a13.23,13.23,0,0,0,6.4-4.4q2.67-3.21,2.66-9.51Q84.71,100.52,83.87,94Z"/><path class="cls-2" d="M103.54,46.11c0,.73-.08,1.15-.25,1.26q-5.69.66-9,.77a12.41,12.41,0,0,1-1.68,0,2.17,2.17,0,0,0-1.67.72,4.1,4.1,0,0,0-.87,1.9V53q4.19-.23,7.62-.55t4-.36a2.77,2.77,0,0,1,1.92.45c0,1.32-.93,2-2.8,2.15-1.5.1-3.51,0-5,0a8.66,8.66,0,0,0-3.47.77,3.94,3.94,0,0,0-1.71,2.58,23.89,23.89,0,0,0-.56,6.11c0,1.06.24,4.35.72,9.84S92,85.2,93,91a55.12,55.12,0,0,0,3.52,13.29,30.47,30.47,0,0,0,3,5.26,13.69,13.69,0,0,0,2.44,2.63c.72.54,1.36,1.05,1.94,1.51a3,3,0,0,1,1.09,1.72l-1.37.43c-3.16-.14-5.74-2.47-7.74-7a63.9,63.9,0,0,1-4.28-14.72Q90.22,86.33,89.81,81c-.17-2.68-.45-8.15-.81-16.43s-.55-12.6-.55-12.87V46.25a4.94,4.94,0,0,1,2.46-.64c1.14-.08,3.23-.17,6.27-.29a42,42,0,0,0,5.72-.45C103.33,44.94,103.54,45.35,103.54,46.11Z"/><path class="cls-2" d="M108.57,105.79q0-5.67,0-13,0-45.62-.73-47.53l2.55.3V98.86c0,.54,0,1.31,0,2.29s0,1.72,0,2.18a19.16,19.16,0,0,0,.48,5c.31,1.06,1,1.45,1.92,1.16l5.63-1.69a19.26,19.26,0,0,0,2-1,8.64,8.64,0,0,0,2.05-1.37l1.17-.34a12.2,12.2,0,0,1,.16,2.1,17.89,17.89,0,0,1-.16,1.86l-15,4.71Q108.54,111.46,108.57,105.79Z"/><path class="cls-2" d="M127.27,41.63c-.16-.07-.26-.25-.33-.55a12,12,0,0,1-.09-1.71h1.33c0,.25.06.6.13,1.06a6,6,0,0,1,.11.87q0,.42-.24.42A3.05,3.05,0,0,1,127.27,41.63Zm0,3.58,1.38,0q0,6.27.14,18.8t.25,26.8q.15,14.27.29,16.81l-2.06.65Z"/><path class="cls-2" d="M147.49,43.79c2.37,0,3.58.14,3.63.58a4.5,4.5,0,0,1-.47,2.17,12.69,12.69,0,0,1-1.42,2,11.32,11.32,0,0,0-1.45,2.12,5.55,5.55,0,0,0-.49,2.49L151,97.88a13.85,13.85,0,0,0,.15,1.46c.09.73.14,1.14.14,1.21l-1.47.46c-.11,0-.2-.25-.27-.85s-.15-1.74-.25-3.41-.2-3.23-.31-4.69c0-.69-.09-1.66-.16-2.91s-.19-2.89-.34-4.93-.39-4.9-.72-8.57-.73-7.72-1.18-12.1a63,63,0,0,0-1.09-7.82c-.31-1.11-.67-1.66-1.06-1.63-.63.45-1.63,1.23-3,2.33a47.69,47.69,0,0,0-4.22,4V105l-2,.62q0-4.25.18-9.12t.26-9.57c.1-3.13.15-4.88.15-5.26q.09-10.8.09-10.54c0-1,0-2.77,0-5.19s0-5.31,0-8.67l-.59-9.72v-3Q144.93,43.84,147.49,43.79Zm-9,2.6a1.8,1.8,0,0,0-1.1,1.88v8.2a23.45,23.45,0,0,0,5.05-3.3,35.13,35.13,0,0,0,4.22-4,7.46,7.46,0,0,0,1.85-2.74c0-.63-.62-.93-1.86-.89-.35,0-1.08.07-2.22.18s-2.07.17-2.83.2A9.52,9.52,0,0,0,138.45,46.39Z"/><path class="cls-2" d="M156.52,41.33a.6.6,0,0,1-.33-.48,7.92,7.92,0,0,1-.09-1.48h1.33c0,.22.06.52.13.91a6.5,6.5,0,0,1,.11.76q0,.36-.24.36A3.22,3.22,0,0,1,156.52,41.33Zm0,3.1,1.37,0q0,5.43.15,16.27t.25,23.19q.15,12.33.29,14.53L156.5,99Z"/><path class="cls-2" d="M164.78,72.7q1.68-9.14,3.95-17.83,2.27-8.52,4-11.51l1.41,0q-1.74,4.62-3.34,10.23T168,65q-1.22,5.83-1.89,11.11a74.08,74.08,0,0,0-.68,9.19q0,9,8.82,6.34c1.38-.42,3.95-.64,5-1.91a2.81,2.81,0,0,0,.51-1.87q0-2.14.06-7.18t0-11.08q0-6.95-.06-12.29T179.61,48a22.65,22.65,0,0,0-.47-4.75l3-.07a.5.5,0,0,0-.07.16c0,.08-.07.22-.14.4q-.18,5-.19,17.19,0,8.8.07,17.45t.12,12.65l-10.08,3.17A5.9,5.9,0,0,1,165.7,93c-1.73-1.62-2.6-4.3-2.6-8A88.27,88.27,0,0,1,164.78,72.7Z"/><path class="cls-2" d="M193.48,45.9a10,10,0,0,1,.49-2.19c.21-.57.49-.85.85-.86s.57.24.8.74.56,1.4,1,2.7A31.08,31.08,0,0,0,198,49.72a11.06,11.06,0,0,0,1.84,2.66,11.3,11.3,0,0,0,1.61-2.59c.42-.93.91-2.14,1.49-3.65a21,21,0,0,1,1.47-3.25l1.14,0c.53,2.72,1.37,7,2.52,12.64s2.29,10.92,3.43,16,1.86,7.71,2.15,8.16l.29,1.37-2.19.69c-.45-2.34-1.15-6-2.11-10.9s-2-10.09-3-15.22-1.71-8.05-2-8.45c-3.28,3-2.74,7.58-4.91,10.92a32.09,32.09,0,0,1-1.28-3.28c-.61-1.74-1.18-3.21-1.72-4.39a8.28,8.28,0,0,0-1.8-2.71c-.15.08-.7,3.08-1.67,9.06s-1.9,12.11-2.8,18.17-1.56,10.76-2,13.87c-1,.38-1.39.55-1.29.52a2.57,2.57,0,0,1-1-.1c.5-2.95,1.24-7.37,2.24-13.23s2-11.73,3.07-17.8,1.64-9.35,1.74-10.16C193.27,47.51,193.36,46.79,193.48,45.9Z"/></svg>